<svg width="24" height="24" viewBox="0 0 24 24" fill="none" xmlns="http://www.w3.org/2000/svg">
<g id="circum:menu-fries">
<path id="Vector" d="M3.56252 19.937C3.42991 19.937 3.30274 19.9897 3.20897 20.0835C3.1152 20.1772 3.06252 20.3044 3.06252 20.437C3.06252 20.5696 3.1152 20.6968 3.20897 20.7906C3.30274 20.8843 3.42991 20.937 3.56252 20.937L20.4365 20.939C20.5691 20.939 20.6963 20.8863 20.7901 20.7926C20.8838 20.6988 20.9365 20.5716 20.9365 20.439C20.9365 20.3064 20.8838 20.1792 20.7901 20.0855C20.6963 19.9917 20.5691 19.939 20.4365 19.939L3.56252 19.937ZM3.56252 11.5C3.42991 11.5 3.30274 11.5527 3.20897 11.6465C3.1152 11.7402 3.06252 11.8674 3.06252 12C3.06252 12.1326 3.1152 12.2598 3.20897 12.3536C3.30274 12.4473 3.42991 12.5 3.56252 12.5L13.5625 12.501C13.6951 12.501 13.8223 12.4483 13.9161 12.3546C14.0098 12.2608 14.0625 12.1336 14.0625 12.001C14.0625 11.8684 14.0098 11.7412 13.9161 11.6475C13.8223 11.5537 13.6951 11.501 13.5625 11.501L3.56252 11.5ZM3.56252 3.06201C3.42991 3.06201 3.30274 3.11469 3.20897 3.20846C3.1152 3.30223 3.06252 3.4294 3.06252 3.56201C3.06252 3.69462 3.1152 3.8218 3.20897 3.91557C3.30274 4.00933 3.42991 4.06201 3.56252 4.06201L20.4365 4.06301C20.5691 4.06301 20.6963 4.01033 20.7901 3.91657C20.8838 3.8228 20.9365 3.69562 20.9365 3.56301C20.9365 3.4304 20.8838 3.30323 20.7901 3.20946C20.6963 3.11569 20.5691 3.06301 20.4365 3.06301L3.56252 3.06201Z" fill="black"/>
</g>
</svg>
